<svg xmlns="http://www.w3.org/2000/svg" width="59.063" height="84" viewBox="0 0 59.063 84">
  <g id="placeholder" transform="translate(-76)">
    <path id="Caminho_28" data-name="Caminho 28" d="M105.531,0A29.554,29.554,0,0,0,76,29.531a29.121,29.121,0,0,0,4.43,15.5l23.1,37.8A2.332,2.332,0,0,0,105.2,83.97a2.45,2.45,0,0,0,2.51-1.181l23.166-38.147a29.125,29.125,0,0,0,4.183-15.11A29.554,29.554,0,0,0,105.531,0Zm0,44.3A14.766,14.766,0,1,1,120.3,29.531,14.746,14.746,0,0,1,105.531,44.3Z" fill="#fd003a"/>
    <path id="Caminho_29" data-name="Caminho 29" d="M256,0V14.766A14.766,14.766,0,0,1,256,44.3V84a2.437,2.437,0,0,0,2.182-1.21l23.166-38.147a29.124,29.124,0,0,0,4.184-15.11A29.554,29.554,0,0,0,256,0Z" transform="translate(-150.469)" fill="#e50027"/>
  </g>
</svg>
